# xmcd
#
# Track frame offsets:
#	150
#	10063
#	21518
#	32705
#	43360
#	53365
#	62975
#	73805
#	85773
#	95035
#	105020
#	115605
#	124350
#	134223
#	144448
#	154673
#
# Disc length: 2187 seconds
#
# Revision: 2
# Processed by: cddbd v1.5.2PL0 Copyright (c) Steve Scherf et al.
# Submitted via: audiograbber 1.83.01
#
DISCID=de088910
DTITLE=Speedy West and Jimmy Bryant - Stratosphere Boogie
DYEAR=1995
DGENRE=Country
TTITLE0=Stratosphere Boogie 
TTITLE1=Blue Bonnett Rag
TTITLE2=Cotton Pickin'
TTITLE3=Old Joe Clark
TTITLE4=Sleepwalker's Lullaby 
TTITLE5=Arkansas Traveler
TTITLE6=The Night Rider
TTITLE7=Low Man On A Totem Pole
TTITLE8=Speedin' West
TTITLE9=Comin' On
TTITLE10=Bryant's Bounce
TTITLE11=Midnight Ramble
TTITLE12=Picken' Peppers
TTITLE13=Shuffleboard Rag
TTITLE14=Bustin' Thru
TTITLE15=Flippin' The Lid
EXTD=
EXTT0=
EXTT1=
EXTT2=
EXTT3=
EXTT4=
EXTT5=
EXTT6=
EXTT7=
EXTT8=
EXTT9=
EXTT10=
EXTT11=
EXTT12=
EXTT13=
EXTT14=
EXTT15=
PLAYORDER=
